
        <svg xmlns="http://www.w3.org/2000/svg" xmlns:xlink="http://www.w3.org/1999/xlink" version="1.1" width="3300" 
        height="2271.168084804008" viewBox="0 -75.00000000000001 3300 2271.168084804008">
			
			<g transform="scale(15.000000000000002) translate(10, 10)">
				<defs id="SvgjsDefs2513"></defs><g id="SvgjsG2514" featureKey="symbolFeature-0" transform="matrix(0.09670563230605739,0,0,0.09670563230605739,51.95377258235919,-36.54415368172365)" fill="#d72323"><path xmlns="http://www.w3.org/2000/svg" d="M784.5,326.3C721.7,325,659,335.1,596.2,349c-62.7,13.9-125.5,31.6-188.2,45.5c-62.7,13.9-125.5,24-188.2,22.8c0,0,0,0,0,0  C157,416,94.2,403.4,31.5,371.8c0,79.8,0,159.6,0,239.4c62.7,31.6,125.5,44.2,188.2,45.5c0,0,0,0,0,0c62.7,1.3,125.5-8.8,188.2-22.8  c62.7-13.9,125.5-31.6,188.2-45.5c62.7-13.9,125.5-24,188.2-22.8c62.7,1.3,125.5,13.9,188.2,45.5c0-79.8,0-159.6,0-239.4  C910,340.2,847.2,327.5,784.5,326.3z M160.9,422.1c0-2.7,2.6-4.5,5.8-4c3.3,0.4,6.6,0.8,9.9,1.2c3.2,0.4,5.8,2.8,5.8,5.4V439  c0,2.7-2.6,4.6-5.8,4.2c-3.3-0.4-6.6-0.8-9.9-1.2c-3.2-0.4-5.8-3-5.8-5.6V422.1z M130,416.4c0-2.7,2.6-4.3,5.8-3.6  c3.3,0.7,6.6,1.3,9.9,1.9c3.2,0.6,5.8,3.2,5.8,5.9V435c0,2.7-2.6,4.4-5.8,3.8c-3.3-0.6-6.6-1.2-9.9-1.9c-3.2-0.7-5.8-3.4-5.8-6.1  V416.4z M99,408.3c0-2.7,2.6-4,5.8-3.1c3.3,0.9,6.6,1.8,9.9,2.7c3.2,0.8,5.8,3.6,5.8,6.3v14.4c0,2.7-2.6,4.2-5.8,3.4  c-3.3-0.9-6.6-1.8-9.9-2.7c-3.2-0.9-5.8-3.9-5.8-6.6V408.3z M68.1,397.6c0-2.7,2.6-3.8,5.8-2.6c3.3,1.2,6.6,2.4,9.9,3.6  c3.2,1.1,5.8,4.1,5.8,6.8v14.4c0,2.7-2.6,4-5.8,2.9c-3.3-1.1-6.6-2.3-9.9-3.6c-3.2-1.2-5.8-4.4-5.8-7.1V397.6z M37.1,384.1  c0-2.7,2.6-3.6,5.8-2.1c3.3,1.5,6.6,3,9.9,4.5c3.2,1.4,5.8,4.7,5.8,7.3v14.4c0,2.7-2.6,3.7-5.8,2.3c-3.3-1.4-6.6-2.9-9.9-4.5  c-3.2-1.5-5.8-5-5.8-7.6V384.1z M58.7,614.8c0,2.7-2.6,3.7-5.8,2.3c-3.3-1.4-6.6-2.9-9.9-4.5c-3.2-1.5-5.8-5-5.8-7.6v-14.4  c0-2.7,2.6-3.6,5.8-2.1c3.3,1.5,6.6,3,9.9,4.5c3.2,1.4,5.8,4.7,5.8,7.3V614.8z M89.7,626.4c0,2.7-2.6,4-5.8,2.9  c-3.3-1.1-6.6-2.3-9.9-3.6c-3.2-1.2-5.8-4.4-5.8-7.1v-14.4c0-2.7,2.6-3.8,5.8-2.6c3.3,1.2,6.6,2.4,9.9,3.6c3.2,1.1,5.8,4.1,5.8,6.8  V626.4z M120.6,635.2c0,2.7-2.6,4.2-5.8,3.4c-3.3-0.9-6.6-1.8-9.9-2.7c-3.2-0.9-5.8-3.9-5.8-6.6V615c0-2.7,2.6-4,5.8-3.1  c3.3,0.9,6.6,1.8,9.9,2.7c3.2,0.8,5.8,3.6,5.8,6.3C120.6,625.7,120.6,630.4,120.6,635.2z M151.6,641.6c0,2.7-2.6,4.4-5.8,3.8  c-3.3-0.6-6.6-1.2-9.9-1.9c-3.2-0.7-5.8-3.4-5.8-6.1c0-4.8,0-9.6,0-14.4c0-2.7,2.6-4.3,5.8-3.6c3.3,0.7,6.6,1.3,9.9,1.9  c3.2,0.6,5.8,3.2,5.8,5.9V641.6z M182.5,645.7c0,2.7-2.6,4.6-5.8,4.2c-3.3-0.4-6.6-0.8-9.9-1.2c-3.2-0.4-5.8-3-5.8-5.6v-14.4  c0-2.7,2.6-4.5,5.8-4c3.3,0.4,6.6,0.8,9.9,1.2c3.2,0.4,5.8,2.8,5.8,5.4C182.5,636.1,182.5,640.9,182.5,645.7z M188.9,619.8  c-42.2-3.5-84.3-12.7-126.5-29.9c-7-2.8-12.6-10.1-12.6-15.8c0-49.3,0-98.6,0-147.9c0-5.8,5.6-7.9,12.6-5  c42.2,17.2,84.3,26.4,126.5,29.9c7,0.6,12.6,5.5,12.6,11.3c0,49.3,0,98.6,0,147.9C201.5,616,195.8,620.4,188.9,619.8z M213.5,647.6  c0,2.7-2.6,4.8-5.8,4.6c-3.3-0.1-6.6-0.3-9.9-0.5c-3.2-0.2-5.8-2.6-5.8-5.2v-14.4c0-2.7,2.6-4.6,5.8-4.4c3.3,0.2,6.6,0.4,9.9,0.5  c3.2,0.1,5.8,2.4,5.8,5.1C213.5,638.1,213.5,642.8,213.5,647.6z M213.5,441c0,2.7-2.6,4.8-5.8,4.6c-3.3-0.1-6.6-0.3-9.9-0.5  c-3.2-0.2-5.8-2.6-5.8-5.2c0-4.8,0-9.6,0-14.4c0-2.7,2.6-4.6,5.8-4.4c3.3,0.2,6.6,0.4,9.9,0.5c3.2,0.1,5.8,2.4,5.8,5.1V441z   M349.2,415.7c0-2.7,2.6-5.3,5.8-5.9c3.3-0.6,6.6-1.2,9.9-1.8c3.2-0.6,5.8,1.1,5.8,3.7v14.4c0,2.7-2.6,5.3-5.8,5.9  c-3.3,0.6-6.6,1.2-9.9,1.8c-3.2,0.6-5.8-1.1-5.8-3.8V415.7z M318.2,420.5c0-2.7,2.6-5.2,5.8-5.7c3.3-0.5,6.6-1,9.9-1.5  c3.2-0.5,5.8,1.2,5.8,3.9v14.4c0,2.7-2.6,5.3-5.8,5.8c-3.3,0.5-6.6,1-9.9,1.5c-3.2,0.5-5.8-1.3-5.8-4V420.5z M287.3,424.1  c0-2.7,2.6-5.1,5.8-5.4c3.3-0.3,6.6-0.7,9.9-1.1c3.2-0.4,5.8,1.5,5.8,4.1c0,4.8,0,9.6,0,14.4c0,2.7-2.6,5.2-5.8,5.5  c-3.3,0.4-6.6,0.7-9.9,1.1c-3.2,0.3-5.8-1.6-5.8-4.3V424.1z M256.3,426.3c0-2.7,2.6-5,5.8-5.1c3.3-0.2,6.6-0.4,9.9-0.6  c3.2-0.2,5.8,1.7,5.8,4.4v14.4c0,2.7-2.6,5-5.8,5.3c-3.3,0.2-6.6,0.4-9.9,0.6c-3.2,0.2-5.8-1.9-5.8-4.5V426.3z M225.4,426.9  c0-2.7,2.6-4.8,5.8-4.8c3.3,0,6.6,0,9.9-0.1c3.2-0.1,5.8,2,5.8,4.7c0,4.8,0,9.6,0,14.4c0,2.7-2.6,4.9-5.8,5  c-3.3,0.1-6.6,0.1-9.9,0.1c-3.2,0-5.8-2.2-5.8-4.9V426.9z M247,647.6c0,2.7-2.6,4.9-5.8,5c-3.3,0.1-6.6,0.1-9.9,0.1  c-3.2,0-5.8-2.2-5.8-4.9v-14.4c0-2.7,2.6-4.8,5.8-4.8c3.3,0,6.6,0,9.9-0.1c3.2-0.1,5.8,2,5.8,4.7V647.6z M277.9,645.9  c0,2.7-2.6,5-5.8,5.3c-3.3,0.2-6.6,0.4-9.9,0.6c-3.2,0.2-5.8-1.9-5.8-4.5v-14.4c0-2.7,2.6-5,5.8-5.1c3.3-0.2,6.6-0.4,9.9-0.6  c3.2-0.2,5.8,1.7,5.8,4.4C277.9,636.4,277.9,641.1,277.9,645.9z M308.9,642.7c0,2.7-2.6,5.2-5.8,5.5c-3.3,0.4-6.6,0.7-9.9,1.1  c-3.2,0.3-5.8-1.6-5.8-4.3v-14.4c0-2.7,2.6-5.1,5.8-5.4c3.3-0.3,6.6-0.7,9.9-1.1c3.2-0.4,5.8,1.5,5.8,4.1  C308.9,633.2,308.9,638,308.9,642.7z M339.8,638.3c0,2.7-2.6,5.3-5.8,5.8c-3.3,0.5-6.6,1-9.9,1.5c-3.2,0.5-5.8-1.3-5.8-4v-14.4  c0-2.7,2.6-5.2,5.8-5.7c3.3-0.5,6.6-1,9.9-1.5c3.2-0.5,5.8,1.2,5.8,3.9V638.3z M370.8,632.8c0,2.7-2.6,5.3-5.8,5.9  c-3.3,0.6-6.6,1.2-9.9,1.8c-3.2,0.6-5.8-1.1-5.8-3.8v-14.4c0-2.7,2.6-5.3,5.8-5.9c3.3-0.6,6.6-1.2,9.9-1.8c3.2-0.6,5.8,1.1,5.8,3.7  C370.8,623.2,370.8,628,370.8,632.8z M250.6,621.1c-7,0.3-12.6-4.4-12.6-10.1V463c0-5.8,5.6-10.5,12.6-10.7  c42.2-1.5,84.3-7.6,126.5-16c7-1.4,12.6,2.1,12.6,7.9c0,49.3,0,98.6,0,147.9c0,5.8-5.6,11.6-12.6,13  C334.9,613.5,292.8,619.6,250.6,621.1z M401.7,626.4c0,2.7-2.6,5.4-5.8,6.1c-3.3,0.7-6.6,1.4-9.9,2.1c-3.2,0.7-5.8-1-5.8-3.6  c0-4.8,0-9.6,0-14.4c0-2.7,2.6-5.4,5.8-6c3.3-0.7,6.6-1.4,9.9-2.1c3.2-0.7,5.8,0.9,5.8,3.6V626.4z M401.7,419.8  c0,2.7-2.6,5.4-5.8,6.1c-3.3,0.7-6.6,1.4-9.9,2.1c-3.2,0.7-5.8-1-5.8-3.6V410c0-2.7,2.6-5.4,5.8-6c3.3-0.7,6.6-1.4,9.9-2.1  c3.2-0.7,5.8,0.9,5.8,3.6V419.8z M537.4,372.5c0-2.7,2.6-5.5,5.8-6.3c3.3-0.8,6.6-1.6,9.9-2.4c3.2-0.8,5.8,0.8,5.8,3.4v14.4  c0,2.7-2.6,5.5-5.8,6.2c-3.3,0.8-6.6,1.6-9.9,2.4c-3.2,0.8-5.8-0.7-5.8-3.4V372.5z M506.5,380.2c0-2.7,2.6-5.5,5.8-6.3  c3.3-0.8,6.6-1.7,9.9-2.5c3.2-0.8,5.8,0.7,5.8,3.4c0,4.8,0,9.6,0,14.4c0,2.7-2.6,5.5-5.8,6.3c-3.3,0.8-6.6,1.7-9.9,2.5  c-3.2,0.8-5.8-0.7-5.8-3.4V380.2z M475.5,388c0-2.7,2.6-5.5,5.8-6.3c3.3-0.8,6.6-1.7,9.9-2.5c3.2-0.8,5.8,0.7,5.8,3.4v14.4  c0,2.7-2.6,5.5-5.8,6.3c-3.3,0.8-6.6,1.7-9.9,2.5c-3.2,0.8-5.8-0.7-5.8-3.4V388z M444.6,395.6c0-2.7,2.6-5.5,5.8-6.2  c3.3-0.8,6.6-1.6,9.9-2.4c3.2-0.8,5.8,0.7,5.8,3.4v14.4c0,2.7-2.6,5.5-5.8,6.3c-3.3,0.8-6.6,1.6-9.9,2.4c-3.2,0.8-5.8-0.8-5.8-3.4  V395.6z M413.6,402.8c0-2.7,2.6-5.4,5.8-6.2c3.3-0.8,6.6-1.5,9.9-2.3c3.2-0.8,5.8,0.8,5.8,3.5v14.4c0,2.7-2.6,5.5-5.8,6.2  c-3.3,0.8-6.6,1.5-9.9,2.3c-3.2,0.7-5.8-0.8-5.8-3.5V402.8z M435.2,618.8c0,2.7-2.6,5.5-5.8,6.2c-3.3,0.8-6.6,1.5-9.9,2.3  c-3.2,0.7-5.8-0.8-5.8-3.5c0-4.8,0-9.6,0-14.4c0-2.7,2.6-5.4,5.8-6.2c3.3-0.8,6.6-1.5,9.9-2.3c3.2-0.8,5.8,0.8,5.8,3.5V618.8z   M466.2,611.3c0,2.7-2.6,5.5-5.8,6.3c-3.3,0.8-6.6,1.6-9.9,2.4c-3.2,0.8-5.8-0.8-5.8-3.4v-14.4c0-2.7,2.6-5.5,5.8-6.2  c3.3-0.8,6.6-1.6,9.9-2.4c3.2-0.8,5.8,0.7,5.8,3.4V611.3z M497.1,603.5c0,2.7-2.6,5.5-5.8,6.3c-3.3,0.8-6.6,1.7-9.9,2.5  c-3.2,0.8-5.8-0.7-5.8-3.4v-14.4c0-2.7,2.6-5.5,5.8-6.3c3.3-0.8,6.6-1.7,9.9-2.5c3.2-0.8,5.8,0.7,5.8,3.4V603.5z M528.1,595.8  c0,2.7-2.6,5.5-5.8,6.3c-3.3,0.8-6.6,1.7-9.9,2.5c-3.2,0.8-5.8-0.7-5.8-3.4v-14.4c0-2.7,2.6-5.5,5.8-6.3c3.3-0.8,6.6-1.7,9.9-2.5  c3.2-0.8,5.8,0.7,5.8,3.4C528.1,586.2,528.1,591,528.1,595.8z M559,588.2c0,2.7-2.6,5.5-5.8,6.2c-3.3,0.8-6.6,1.6-9.9,2.4  c-3.2,0.8-5.8-0.7-5.8-3.4c0-4.8,0-9.6,0-14.4c0-2.7,2.6-5.5,5.8-6.3c3.3-0.8,6.6-1.6,9.9-2.4c3.2-0.8,5.8,0.8,5.8,3.4  C559,578.6,559,583.4,559,588.2z M438.9,591.5c-7,1.7-12.6-1.7-12.6-7.5c0-49.3,0-98.6,0-147.9c0-5.8,5.6-11.7,12.6-13.4  c42.2-10,84.3-21.2,126.5-31.3c7-1.7,12.6,1.7,12.6,7.5c0,49.3,0,98.6,0,147.9c0,5.8-5.6,11.7-12.6,13.4  C523.2,570.3,481,581.5,438.9,591.5z M590,580.9c0,2.7-2.6,5.4-5.8,6.2c-3.3,0.8-6.6,1.5-9.9,2.3c-3.2,0.8-5.8-0.8-5.8-3.5v-14.4  c0-2.7,2.6-5.5,5.8-6.2c3.3-0.8,6.6-1.5,9.9-2.3c3.2-0.7,5.8,0.8,5.8,3.5V580.9z M590,374.3c0,2.7-2.6,5.4-5.8,6.2  c-3.3,0.8-6.6,1.5-9.9,2.3c-3.2,0.8-5.8-0.8-5.8-3.5v-14.4c0-2.7,2.6-5.5,5.8-6.2c3.3-0.8,6.6-1.5,9.9-2.3c3.2-0.7,5.8,0.8,5.8,3.5  V374.3z M725.7,337.7c0-2.7,2.6-5.1,5.8-5.3c3.3-0.2,6.6-0.5,9.9-0.6c3.2-0.2,5.8,1.9,5.8,4.5c0,4.8,0,9.6,0,14.4  c0,2.7-2.6,5-5.8,5.1c-3.3,0.2-6.6,0.4-9.9,0.6c-3.2,0.2-5.8-1.7-5.8-4.4C725.7,347.3,725.7,342.5,725.7,337.7z M694.7,340.9  c0-2.7,2.6-5.2,5.8-5.5c3.3-0.4,6.6-0.8,9.9-1.1c3.2-0.3,5.8,1.6,5.8,4.3v14.4c0,2.7-2.6,5.1-5.8,5.4c-3.3,0.3-6.6,0.7-9.9,1.1  c-3.2,0.4-5.8-1.5-5.8-4.1V340.9z M663.8,345.4c0-2.7,2.6-5.3,5.8-5.8c3.3-0.5,6.6-1,9.9-1.5c3.2-0.5,5.8,1.3,5.8,4v14.4  c0,2.7-2.6,5.2-5.8,5.7c-3.3,0.5-6.6,1-9.9,1.5c-3.2,0.5-5.8-1.2-5.8-3.9V345.4z M632.8,350.9c0-2.7,2.6-5.3,5.8-6  c3.3-0.6,6.6-1.2,9.9-1.8c3.2-0.6,5.8,1.1,5.8,3.8v14.4c0,2.7-2.6,5.3-5.8,5.9c-3.3,0.6-6.6,1.2-9.9,1.8c-3.2,0.6-5.8-1-5.8-3.7  V350.9z M601.9,357.3c0-2.7,2.6-5.4,5.8-6.1c3.3-0.7,6.6-1.4,9.9-2.1c3.2-0.7,5.8,1,5.8,3.6v14.4c0,2.7-2.6,5.4-5.8,6  c-3.3,0.7-6.6,1.4-9.9,2.1c-3.2,0.7-5.8-0.9-5.8-3.6C601.9,366.9,601.9,362.1,601.9,357.3z M623.5,573.8c0,2.7-2.6,5.4-5.8,6  c-3.3,0.7-6.6,1.4-9.9,2.1c-3.2,0.7-5.8-0.9-5.8-3.6c0-4.8,0-9.6,0-14.4c0-2.7,2.6-5.4,5.8-6.1c3.3-0.7,6.6-1.4,9.9-2.1  c3.2-0.7,5.8,1,5.8,3.6C623.5,564.2,623.5,569,623.5,573.8z M654.4,568c0,2.7-2.6,5.3-5.8,5.9c-3.3,0.6-6.6,1.2-9.9,1.8  c-3.2,0.6-5.8-1-5.8-3.7v-14.4c0-2.7,2.6-5.3,5.8-6c3.3-0.6,6.6-1.2,9.9-1.8c3.2-0.6,5.8,1.1,5.8,3.8  C654.4,558.4,654.4,563.2,654.4,568z M685.4,563.1c0,2.7-2.6,5.2-5.8,5.7c-3.3,0.5-6.6,1-9.9,1.5c-3.2,0.5-5.8-1.2-5.8-3.9V552  c0-2.7,2.6-5.3,5.8-5.8c3.3-0.5,6.6-1,9.9-1.5c3.2-0.5,5.8,1.3,5.8,4V563.1z M716.3,559.5c0,2.7-2.6,5.1-5.8,5.4  c-3.3,0.3-6.6,0.7-9.9,1.1c-3.2,0.4-5.8-1.5-5.8-4.1v-14.4c0-2.7,2.6-5.2,5.8-5.5c3.3-0.4,6.6-0.8,9.9-1.1c3.2-0.3,5.8,1.6,5.8,4.3  C716.3,550,716.3,554.7,716.3,559.5z M747.3,557.3c0,2.7-2.6,5-5.8,5.1c-3.3,0.2-6.6,0.4-9.9,0.6c-3.2,0.2-5.8-1.7-5.8-4.4  c0-4.8,0-9.6,0-14.4c0-2.7,2.6-5.1,5.8-5.3c3.3-0.2,6.6-0.5,9.9-0.6c3.2-0.2,5.8,1.9,5.8,4.5C747.3,547.7,747.3,552.5,747.3,557.3z   M627.1,546.6c-7,1.4-12.6-2.1-12.6-7.9V390.8c0-5.8,5.6-11.6,12.6-13c42.2-8.4,84.3-14.5,126.5-16c7-0.3,12.6,4.4,12.6,10.1  c0,49.3,0,98.6,0,147.9c0,5.8-5.6,10.5-12.6,10.7C711.4,532.1,669.3,538.2,627.1,546.6z M778.2,556.7c0,2.7-2.6,4.8-5.8,4.8  c-3.3,0-6.6,0-9.9,0.1c-3.2,0.1-5.8-2-5.8-4.7c0-4.8,0-9.6,0-14.4c0-2.7,2.6-4.9,5.8-5c3.3-0.1,6.6-0.1,9.9-0.1  c3.2,0,5.8,2.2,5.8,4.9C778.2,547.1,778.2,551.9,778.2,556.7z M778.2,350.1c0,2.7-2.6,4.8-5.8,4.8c-3.3,0-6.6,0-9.9,0.1  c-3.2,0.1-5.8-2-5.8-4.7c0-4.8,0-9.6,0-14.4c0-2.7,2.6-4.9,5.8-5c3.3-0.1,6.6-0.1,9.9-0.1c3.2,0,5.8,2.2,5.8,4.9  C778.2,340.5,778.2,345.3,778.2,350.1z M913.9,357c0-2.7,2.6-4,5.8-2.9c3.3,1.1,6.6,2.3,9.9,3.5c3.2,1.2,5.8,4.4,5.8,7.1  c0,4.8,0,9.6,0,14.4c0,2.7-2.6,3.8-5.8,2.6c-3.3-1.2-6.6-2.4-9.9-3.5c-3.2-1.1-5.8-4.1-5.8-6.8V357z M883,348.2  c0-2.7,2.6-4.2,5.8-3.4c3.3,0.9,6.6,1.7,9.9,2.7c3.2,0.9,5.8,3.9,5.8,6.5c0,4.8,0,9.6,0,14.4c0,2.7-2.6,4-5.8,3.1  c-3.3-0.9-6.6-1.8-9.9-2.7c-3.2-0.8-5.8-3.6-5.8-6.3C883,357.8,883,353,883,348.2z M852,341.9c0-2.7,2.6-4.4,5.8-3.8  c3.3,0.6,6.6,1.2,9.9,1.9c3.2,0.7,5.8,3.4,5.8,6.1v14.4c0,2.7-2.6,4.3-5.8,3.6c-3.3-0.7-6.6-1.3-9.9-1.9c-3.2-0.6-5.8-3.2-5.8-5.8  C852,351.5,852,346.7,852,341.9z M821.1,337.9c0-2.7,2.6-4.6,5.8-4.2c3.3,0.4,6.6,0.8,9.9,1.2c3.2,0.4,5.8,3,5.8,5.6v14.4  c0,2.7-2.6,4.5-5.8,4c-3.3-0.4-6.6-0.8-9.9-1.2c-3.2-0.3-5.8-2.8-5.8-5.4V337.9z M790.1,335.9c0-2.7,2.6-4.8,5.8-4.6  c3.3,0.1,6.6,0.3,9.9,0.5c3.2,0.2,5.8,2.6,5.8,5.2v14.4c0,2.7-2.6,4.6-5.8,4.4c-3.3-0.2-6.6-0.4-9.9-0.5c-3.2-0.1-5.8-2.4-5.8-5.1  V335.9z M811.7,558.1c0,2.7-2.6,4.6-5.8,4.4c-3.3-0.2-6.6-0.4-9.9-0.5c-3.2-0.1-5.8-2.4-5.8-5.1v-14.4c0-2.7,2.6-4.8,5.8-4.6  c3.3,0.1,6.6,0.3,9.9,0.5c3.2,0.2,5.8,2.6,5.8,5.2V558.1z M842.7,561.4c0,2.7-2.6,4.5-5.8,4c-3.3-0.4-6.6-0.8-9.9-1.2  c-3.2-0.3-5.8-2.8-5.8-5.4c0-4.8,0-9.6,0-14.4c0-2.7,2.6-4.6,5.8-4.2c3.3,0.4,6.6,0.8,9.9,1.2c3.2,0.4,5.8,3,5.8,5.6V561.4z   M873.6,567c0,2.7-2.6,4.3-5.8,3.6c-3.3-0.7-6.6-1.3-9.9-1.9c-3.2-0.6-5.8-3.2-5.8-5.8c0-4.8,0-9.6,0-14.4c0-2.7,2.6-4.4,5.8-3.8  c3.3,0.6,6.6,1.2,9.9,1.9c3.2,0.7,5.8,3.4,5.8,6.1C873.6,557.5,873.6,562.3,873.6,567z M904.6,575.1c0,2.7-2.6,4-5.8,3.1  c-3.3-0.9-6.6-1.8-9.9-2.7c-3.2-0.8-5.8-3.6-5.8-6.3c0-4.8,0-9.6,0-14.4c0-2.7,2.6-4.2,5.8-3.4c3.3,0.9,6.6,1.7,9.9,2.7  c3.2,0.9,5.8,3.9,5.8,6.5C904.6,565.5,904.6,570.3,904.6,575.1z M935.5,585.7c0,2.7-2.6,3.8-5.8,2.6c-3.3-1.2-6.6-2.4-9.9-3.5  c-3.2-1.1-5.8-4.1-5.8-6.8v-14.4c0-2.7,2.6-4,5.8-2.9c3.3,1.1,6.6,2.3,9.9,3.5c3.2,1.2,5.8,4.4,5.8,7.1V585.7z M815.3,531.9  c-7-0.6-12.6-5.5-12.6-11.3c0-49.3,0-98.6,0-147.9c0-5.8,5.6-10.1,12.6-9.6c42.2,3.5,84.3,12.7,126.5,29.9  c7,2.8,12.6,10.1,12.6,15.8c0,49.3,0,98.6,0,147.9c0,5.8-5.6,7.9-12.6,5C899.7,544.6,857.5,535.4,815.3,531.9z M966.5,599.2  c0,2.7-2.6,3.6-5.8,2.1c-3.3-1.5-6.6-3-9.9-4.5c-3.2-1.4-5.8-4.7-5.8-7.3v-14.4c0-2.7,2.6-3.8,5.8-2.3c3.3,1.4,6.6,2.9,9.9,4.5  c3.2,1.5,5.8,4.9,5.8,7.6V599.2z M966.5,392.6c0,2.7-2.6,3.6-5.8,2.1c-3.3-1.5-6.6-3-9.9-4.5c-3.2-1.4-5.8-4.7-5.8-7.3v-14.4  c0-2.7,2.6-3.8,5.8-2.3c3.3,1.4,6.6,2.9,9.9,4.5c3.2,1.5,5.8,4.9,5.8,7.6C966.5,383,966.5,387.8,966.5,392.6z"></path></g><g id="SvgjsG2515" featureKey="nameFeature-0" transform="matrix(2.1748395298389585,0,0,2.1748395298389585,-1.1291960575392,33.91949972651068)" fill="#eeeeee"><path d="M18.52 12.96 c-3.6 8.88 -7.16 20.76 -8.32 29.04 c-0.72 0.64 -5.12 0.2 -6.48 -1.4 c-1.76 -0.44 -3.24 -1.4 -3.2 -3.04 c0.08 -9.48 0 -15.76 1.48 -25.4 c0.8 -1.32 4.2 -3.36 6.28 -1.48 c-0.12 0.56 -0.28 1.24 -0.4 1.96 c0.6 -0.08 1.16 0 1.52 0.32 c-0.36 1.52 -0.76 4.04 -1.12 7 c1.48 -4.96 2.84 -8.68 3.96 -11.52 c1.8 -0.52 5.04 0.6 5.08 2.68 l-0.16 0.4 c0.76 0.36 1.36 0.92 1.36 1.44 z M16.32 10.96 c-0.08 -0.88 -2.16 -1.92 -3.32 -1.68 c-1.76 4.4 -4.32 11.6 -6.92 23.12 c-0.16 0.56 -0.88 0.48 -0.92 -0.72 c-0.04 -6.48 1.16 -16.76 2 -20.64 c-1 -0.72 -3.52 0.44 -4.2 1.48 c-1.44 9.36 -1.36 15.64 -1.44 25.04 c-0.04 2.12 5.48 2.96 6.48 2.32 c1.2 -8.28 4.72 -20.12 8.32 -28.92 z M30.88 11.559999999999999 c0.32 0.08 -0.2 4.08 -1.44 5.4 c-0.52 0.56 -2.28 0.08 -3.24 0.64 c-0.72 2.84 -1.88 9.44 -2.56 15.04 c0.48 -0.12 1.04 -0.28 1.64 -0.48 c0.28 1.2 0.28 2.36 0.12 3.36 c0.6 -0.12 1.04 -0.24 1.32 -0.36 c0.4 1.92 -0.52 4.32 -1.28 5 c-1.32 1.24 -7.08 2.48 -8.84 2.36 c-0.56 -0.08 -0.76 -0.52 -0.76 -1.24 c-0.52 0.04 -1 0.04 -1.32 0.04 c-2.08 -0.2 -1.64 -2.68 -0.6 -6.76 c0.72 0 1.56 -0.12 2.72 -0.36 c0.36 -5.6 1.52 -9.6 2.48 -15.36 c-0.32 0.08 -0.6 0.16 -0.76 0.24 c-0.08 -0.4 -0.04 -1.24 0.2 -2.12 c-0.96 0.4 -2.04 0.92 -2.88 1.2 c-0.28 -2.08 0.2 -5.6 2.36 -7.12 c1.92 -1.28 8.6 -2.44 11.6 -2.32 c0.16 0.48 0.16 1.36 -0.04 2.88 c0.48 -0.04 0.92 -0.04 1.28 -0.04 z M28.84 9.760000000000002 c-2.84 -0.08 -8.56 1 -10.24 2.12 c-1.6 1.08 -2.12 3.8 -2.08 4.92 c1.44 -0.44 5.24 -1.44 5.44 -0.72 c0.28 0.96 -1.68 2 -1.8 2.76 c-1 6.04 -2.24 10.08 -2.56 16.2 c-1.36 0.28 -2.44 0.48 -2.92 0.52 c-0.68 2.68 -1.2 4.64 -0.04 4.76 c1.68 0.12 7.4 -1.12 8.68 -2.32 c0.68 -0.6 1.52 -2.76 1.24 -4.56 c-0.64 0.16 -1.88 0.48 -3.56 0.84 c0.64 -6.32 2.12 -15.28 3 -18.8 c0.64 -0.36 1.28 -0.36 2 -0.4 c0.56 0 1.08 0 1.32 -0.24 c0.56 -0.64 1 -1.92 1.24 -3.08 c0.2 -1.04 0.44 -1.92 0.28 -2 z M41.44 29.72 c-1.12 4.68 -3.16 10.16 -8.2 12.08 c-1.4 0.56 -3.24 -0.04 -3.72 -0.64 c-0.08 -0.12 -0.16 -0.24 -0.2 -0.4 c-1.04 -0.12 -2 -0.56 -2.4 -1.12 c-0.68 -0.84 -0.6 -2.12 -0.48 -3.16 c0.64 -5.8 1.48 -11.44 2.4 -17.24 c0.12 -0.8 0.44 -1.4 0.76 -1.88 c-0.6 0.2 -1.36 0.44 -2.48 0.72 c0.12 -3.48 1.44 -6.92 3 -8 c2.16 -1.52 6.08 -2.16 8.36 -0.16 c1 0.88 1.72 2.04 2.2 3.32 c3.2 3.92 1.84 11.88 0.76 16.48 z M39.24 27.64 c1.16 -4.92 2.56 -13.48 -1.4 -16.96 c-1.84 -1.6 -5.16 -1.16 -7.16 0.2 c-1.12 0.8 -2.36 3.64 -2.52 5.88 c0.68 -0.2 2.04 -0.72 2.72 -0.72 c0.24 0 0.6 0.08 0.48 0.52 c-0.12 0.36 -0.56 0.8 -0.8 1.16 c-0.32 0.44 -0.6 0.96 -0.72 1.68 c-0.92 5.76 -1.76 11.4 -2.44 17.2 c-0.08 0.88 -0.16 1.8 0.28 2.44 c0.4 0.52 2.16 1.08 3.48 0.56 c4.92 -1.88 6.96 -7.24 8.08 -11.96 z M36.68 21 c-0.24 3.48 -0.92 8.2 -3.12 11.56 c-0.56 0.84 -1.04 1.6 -2.28 1.48 c0.64 -6.28 1.2 -12.08 2.76 -17.92 c2.68 -1.6 2.76 3.64 2.64 4.88 z M35.72 20.12 c-0.6 2.76 -1.04 5.48 -1.4 8.28 c0.88 -2.6 1.44 -5.72 1.4 -8.28 z M56.96000000000001 11.2 c0.2 1.52 -0.28 3.68 -1.6 4.64 c-0.72 0.56 -2.48 0.48 -4.04 0.8 c-0.48 1.24 -0.88 2.48 -1.2 3.8 c0.88 -0.08 1.68 0 2.8 0.28 c-0.36 1.2 -0.48 1.92 -0.6 2.48 c0.56 -0.04 1.12 0 1.6 0.08 c-0.48 1.48 -0.32 3.04 -1.44 3.92 c-0.68 0.56 -2.6 1.04 -3.28 1.28 c-1 2.56 -1.24 8.96 -1.12 11.84 c-1.16 1.44 -4.68 3.4 -4.68 0.76 l0 -0.04 c-1.2 0.32 -2.8 0.12 -2.8 -1.96 c0 -2.32 2.04 -15.56 3.08 -21.68 c0.08 -0.4 0.24 -0.8 0.44 -1.12 c-0.52 0.24 -1.24 0.56 -2.48 1.16 c0.44 -3.04 1.08 -5.72 2.32 -6.84 c2.36 -2.08 8.84 -2.28 11.72 -2.2 c0.12 0.96 0.12 1.92 -0.04 2.8 l1.32 0 z M54.800000000000004 9.399999999999999 c-0.64 0 -2.88 -0.04 -4.32 0.2 c-1.76 0.28 -4.48 0.52 -5.88 1.76 c-0.84 0.76 -1.44 2.8 -1.72 4.4 c0.6 -0.28 2.68 -1.28 3.2 -0.8 c0.28 0.32 -0.36 0.92 -0.56 1.16 c-0.36 0.4 -0.76 0.88 -0.84 1.44 c-1.04 6.16 -3.08 19.32 -3.08 21.52 c0 1.12 0.68 1.28 1.64 0.96 s2.08 -1.12 2.64 -1.8 c-0.12 -2.92 0.12 -9.24 1.16 -11.92 c0.88 -0.32 2.64 -0.76 3.32 -1.28 c0.52 -0.4 0.72 -0.96 0.88 -1.6 s0.24 -1.32 0.4 -2 c-1.2 -0.2 -2.92 0.16 -4.12 0.36 c0.08 -2.68 0.76 -5.04 1.68 -7.32 c0.88 -0.2 1.72 -0.24 2.44 -0.36 c0.72 -0.08 1.28 -0.2 1.6 -0.44 c1.2 -0.88 1.68 -2.8 1.56 -4.28 z M63.2 35.44 c0 1.28 -0.24 3.2 -1.68 4.48 c-1.56 1.4 -3.92 1.84 -5.88 1.92 c-1.04 0.04 -1.48 -0.36 -1.52 -1.24 c-0.16 0.04 -0.32 0.04 -0.48 0.04 c-1.52 0.08 -2.4 -0.8 -2.32 -2.24 c0.44 -9.2 3.12 -23.28 4.52 -27.68 c0.76 -2.36 4.28 -1.92 6 0.92 l-0.2 0.76 c0.52 0.32 1 0.76 1.36 1.36 c-1.2 4.16 -3.48 13 -4.28 19.2 c0.92 -0.16 1.96 -0.32 3.24 -0.36 c0.04 1 0 2.04 -0.24 3 c0.52 -0.08 1 -0.16 1.48 -0.16 z M61 33.64 c-1.4 0.12 -3.16 0.48 -4.76 0.68 c0.2 -6.08 3.08 -17.56 4.52 -22.56 c-1.2 -1.88 -3.52 -2.16 -3.96 -0.72 c-1.36 4.28 -4.08 18.28 -4.48 27.4 c-0.04 0.84 0.32 1.24 1.28 1.2 c1.96 -0.08 4.28 -0.52 5.8 -1.88 c1.28 -1.16 1.56 -2.84 1.6 -4.12 z M79.2 11.559999999999999 c0.32 0.08 -0.2 4.08 -1.44 5.4 c-0.52 0.56 -2.28 0.08 -3.24 0.64 c-0.72 2.84 -1.88 9.44 -2.56 15.04 c0.48 -0.12 1.04 -0.28 1.64 -0.48 c0.28 1.2 0.28 2.36 0.12 3.36 c0.6 -0.12 1.04 -0.24 1.32 -0.36 c0.4 1.92 -0.52 4.32 -1.28 5 c-1.32 1.24 -7.08 2.48 -8.84 2.36 c-0.56 -0.08 -0.76 -0.52 -0.76 -1.24 c-0.52 0.04 -1 0.04 -1.32 0.04 c-2.08 -0.2 -1.64 -2.68 -0.6 -6.76 c0.72 0 1.56 -0.12 2.72 -0.36 c0.36 -5.6 1.52 -9.6 2.48 -15.36 c-0.32 0.08 -0.6 0.16 -0.76 0.24 c-0.08 -0.4 -0.04 -1.24 0.2 -2.12 c-0.96 0.4 -2.04 0.92 -2.88 1.2 c-0.28 -2.08 0.2 -5.6 2.36 -7.12 c1.92 -1.28 8.6 -2.44 11.6 -2.32 c0.16 0.48 0.16 1.36 -0.04 2.88 c0.48 -0.04 0.92 -0.04 1.28 -0.04 z M77.16000000000001 9.760000000000002 c-2.84 -0.08 -8.56 1 -10.24 2.12 c-1.6 1.08 -2.12 3.8 -2.08 4.92 c1.44 -0.44 5.24 -1.44 5.44 -0.72 c0.28 0.96 -1.68 2 -1.8 2.76 c-1 6.04 -2.24 10.08 -2.56 16.2 c-1.36 0.28 -2.44 0.48 -2.92 0.52 c-0.68 2.68 -1.2 4.64 -0.04 4.76 c1.68 0.12 7.4 -1.12 8.68 -2.32 c0.68 -0.6 1.52 -2.76 1.24 -4.56 c-0.64 0.16 -1.88 0.48 -3.56 0.84 c0.64 -6.32 2.12 -15.28 3 -18.8 c0.64 -0.36 1.28 -0.36 2 -0.4 c0.56 0 1.08 0 1.32 -0.24 c0.56 -0.64 1 -1.92 1.24 -3.08 c0.2 -1.04 0.44 -1.92 0.28 -2 z M92.48 12.440000000000001 c-2.2 5.04 -4.64 10.16 -6.96 15.4 c0.56 4.24 1.36 8.4 2.72 12.36 c-0.68 1.4 -3.56 2.8 -3.88 1.48 l-0.2 -0.88 c-1.28 0.44 -2.32 0.08 -2.56 -0.92 c-0.16 -0.56 -0.28 -1.08 -0.4 -1.6 c-0.4 0.92 -0.76 1.84 -1.2 2.68 c-0.64 1.2 -3.76 1.88 -4.2 0.92 l0.32 -0.92 c-1.24 0.32 -2.64 0.2 -3.2 -1.04 c2.12 -5.8 3.96 -10.44 5.8 -14.76 c-0.56 -4.2 -0.96 -8.32 -1.4 -12.52 c-0.2 -2.24 2.8 -3.44 5.28 -3.2 c0.12 0.92 0.2 1.84 0.32 2.76 c0.32 -0.04 0.64 -0.08 0.96 -0.04 l0.12 0.92 c0.44 -1 0.88 -2.04 1.48 -3.28 c1.12 -2.36 4.76 -1.56 5.88 0.6 l-0.4 0.88 c0.64 0.2 1.24 0.6 1.52 1.16 z M90.24000000000001 10.440000000000001 c-0.76 -1.32 -3.24 -1.52 -3.84 -0.2 c-1.44 3.04 -2.24 4.96 -3.84 8.6 c-0.32 -3.24 -0.56 -6.04 -0.84 -8.48 c-1.72 -0.08 -3.52 1.08 -3.4 2.2 c0.44 4.24 0.84 8.44 1.4 12.72 c-1.84 4.4 -3.72 9.08 -5.72 14.6 c0.48 0.6 3.24 0.16 3.8 -1 c1.04 -2.04 1.8 -4.36 2.92 -7.12 c0.6 3.24 1.16 5.2 1.84 7.88 c0.12 0.56 0.8 0.44 1.52 0.12 c0.8 -0.32 1.6 -0.96 1.92 -1.6 c-1.36 -3.92 -2.12 -8.08 -2.68 -12.36 c2.32 -5.24 4.76 -10.36 6.92 -15.36 z"></path></g>
			</g>
		</svg>
	